<?xml version="1.0" encoding="iso-8859-1"?>
<!-- Generator: Adobe Illustrator 19.0.0, SVG Export Plug-In . SVG Version: 6.00 Build 0)  -->
<svg version="1.1" id="Layer_1" xmlns="http://www.w3.org/2000/svg" xmlns:xlink="http://www.w3.org/1999/xlink" x="0px" y="0px"
	 viewBox="0 0 512 512" style="enable-background:new 0 0 512 512;" xml:space="preserve">
<circle style="fill:#35CCFF;" cx="256" cy="256" r="256"/>
<path style="fill:#00BAFF;" d="M222.99,357.443l118.05,140.073C440.618,462.453,512,367.571,512,256
	c0-28.917-4.8-56.712-13.638-82.638L458,133l-40.333,49.333L323.973,88.64L67.24,201.692L222.99,357.443z"/>
<path style="fill:#EFD48F;" d="M460.799,409.616l-8.525-17.542l-152.978-37.523v-30.788h-86.591v30.788L59.726,392.075
	l-8.525,17.542C97.907,471.784,172.255,512,256,512S414.093,471.785,460.799,409.616z"/>
<path style="fill:#E7C46B;" d="M452.274,392.075l-152.978-37.523v-30.788H256V512c83.745,0,158.093-40.215,204.799-102.384
	L452.274,392.075z"/>
<circle style="fill:#EFD48F;" cx="155.86" cy="243.98" r="28.808"/>
<circle style="fill:#E7C46B;" cx="356.14" cy="243.98" r="28.808"/>
<path style="fill:#FFECB3;" d="M258.387,336.634h-4.773c-53.989,0-97.757-43.767-97.757-97.757v-73.121
	c0-53.989,43.767-97.757,97.757-97.757h4.773c53.989,0,97.757,43.767,97.757,97.757v73.121
	C356.143,292.867,312.376,336.634,258.387,336.634z"/>
<path style="fill:#E8D3A0;" d="M256,70.833v265.8h2.387c53.988,0,97.754-43.764,97.756-97.752V166.26
	C356.143,113.557,311.308,70.833,256,70.833z"/>
<path style="fill:#FF9451;" d="M255.667,303c-16.818,0-30.5-13.682-30.5-30.5h12c0,10.201,8.299,18.5,18.5,18.5
	s18.5-8.299,18.5-18.5h12C286.167,289.318,272.485,303,255.667,303z"/>
<path style="fill:#F7674F;" d="M255.667,291c10.201,0,18.5-8.299,18.5-18.5h12c0,16.818-13.682,30.5-30.5,30.5L255.667,291
	L255.667,291z"/>
<path style="fill:#333333;" d="M256,63.5L256,63.5c-55.308,0-100.143,43.702-100.143,97.611v79.56c0,12.893,2.57,25.2,7.229,36.467
	v-47.235c0-50.017,41.599-90.564,92.914-90.564l0,0c51.315,0,92.914,40.547,92.914,90.564v47.235
	c4.659-11.267,7.229-23.574,7.229-36.467v-79.56C356.143,107.202,311.308,63.5,256,63.5z"/>
<path style="fill:#1A1A1A;" d="M256,63.5v75.839c51.315,0,92.914,40.547,92.914,90.564v47.235
	c4.659-11.267,7.229-23.574,7.229-36.467v-79.56C356.143,107.202,311.308,63.5,256,63.5z"/>
<circle style="fill:#1A1A1A;" cx="313.02" cy="238.23" r="10.803"/>
<circle style="fill:#333333;" cx="198.98" cy="238.23" r="10.803"/>
<path style="fill:#EFD48F;" d="M260.801,252.583h-9.603c-7.955,0-14.404-6.449-14.404-14.404v-2.81h38.411v2.81
	C275.206,246.134,268.757,252.583,260.801,252.583z"/>
<path style="fill:#E7C46B;" d="M256,235.369v17.214h4.801c7.955,0,14.404-6.449,14.404-14.404v-2.81H256z"/>
<path style="fill:#FF6838;" d="M356.143,154.098c0-41.772-44.835-93.931-100.143-93.931l0,0
	c-55.308,0-100.143,52.159-100.143,93.931V179.5h200.286V154.098z"/>
<path style="fill:#AE4E32;" d="M356.143,154.098c0-41.772-44.835-93.931-100.143-93.931V179.5h100.143V154.098z"/>
<rect x="288.5" y="211.34" style="fill:#333333;" width="44.584" height="14.888"/>
<rect x="178.92" y="211.34" style="fill:#4D4D4D;" width="44.584" height="14.888"/>
<path style="fill:#FF6838;" d="M452.274,392.075l-140.48-34.457L256,413.412l-55.794-55.794l-140.48,34.457l-8.525,17.542
	C97.907,471.784,172.255,512,256,512s158.093-40.215,204.799-102.384L452.274,392.075z"/>
<path style="fill:#AE4E32;" d="M452.274,392.075l-140.479-34.457L256,413.412V512c83.745,0,158.093-40.215,204.799-102.384
	L452.274,392.075z"/>
<polygon style="fill:#FF9451;" points="256,450.286 341.405,364.88 311.794,357.617 256,413.412 200.206,357.617 170.595,364.88 "/>
<polygon style="fill:#F7674F;" points="311.794,357.617 256,413.412 256,450.286 341.405,364.88 "/>
<polygon style="fill:#4D4D4D;" points="303.01,308.355 280.837,277.138 231.163,277.138 208.99,308.355 181.882,296.811 
	189.718,278.41 202.01,283.645 220.837,257.138 291.163,257.138 309.99,283.645 322.282,278.41 330.118,296.811 "/>
<polygon style="fill:#333333;" points="322.282,278.41 309.99,283.645 291.163,257.138 256,257.138 256,277.138 280.837,277.138 
	303.01,308.355 330.118,296.811 "/>
<polygon style="fill:#FFDC00;" points="441.962,201.692 67.239,201.692 51.201,133 458,133 "/>
<polygon style="fill:#FFC000;" points="458,133 256,133 256,201.692 441.961,201.692 "/>
<g>
	<polygon style="fill:#FF9451;" points="74.699,195.5 110.585,142 146.472,195.5 	"/>
	<polygon style="fill:#FF9451;" points="147.831,195.5 183.717,142 219.604,195.5 	"/>
	<polygon style="fill:#FF9451;" points="220.963,195.5 256.849,142 292.736,195.5 	"/>
</g>
<g>
	<polygon style="fill:#F7674F;" points="256.849,142 256.849,142 256,195.5 292.736,195.5 	"/>
	<polygon style="fill:#F7674F;" points="294.095,195.5 329.981,142 365.868,195.5 	"/>
	<polygon style="fill:#F7674F;" points="367.227,195.5 403.113,142 439,195.5 	"/>
</g>
<g>
</g>
<g>
</g>
<g>
</g>
<g>
</g>
<g>
</g>
<g>
</g>
<g>
</g>
<g>
</g>
<g>
</g>
<g>
</g>
<g>
</g>
<g>
</g>
<g>
</g>
<g>
</g>
<g>
</g>
</svg>
