<?xml version="1.0" encoding="iso-8859-1"?>
<!-- Generator: Adobe Illustrator 19.0.0, SVG Export Plug-In . SVG Version: 6.00 Build 0)  -->
<svg version="1.1" id="Layer_1" xmlns="http://www.w3.org/2000/svg" xmlns:xlink="http://www.w3.org/1999/xlink" x="0px" y="0px"
	 viewBox="0 0 512 512" style="enable-background:new 0 0 512 512;" xml:space="preserve">
<circle style="fill:#35CCFF;" cx="256" cy="256" r="256"/>
<path style="fill:#00BAFF;" d="M512,256c0-22.615-2.946-44.539-8.451-65.425l-90.676-90.676l-282.54,186.435l-3.285,44.101
	l177.037,177.037C422.481,484.967,512,380.946,512,256z"/>
<circle style="fill:#F1333F;" cx="340.33" cy="158.19" r="93.06"/>
<path style="fill:#1A1A1A;" d="M418.924,228.527L418.924,228.527c0-48.47-39.292-87.762-87.761-87.762h-68.837
	c48.469,0,87.761,39.292,87.761,87.761l0,0c0,48.47-39.292,87.762-87.761,87.763h68.837
	C379.632,316.29,418.924,276.997,418.924,228.527z"/>
<circle style="fill:#D39746;" cx="155.86" cy="243.98" r="28.808"/>
<circle style="fill:#C4873D;" cx="356.14" cy="243.98" r="28.808"/>
<path style="fill:#FFDC00;" d="M157.942,344.456c-22.68,0-41.132-18.452-41.132-41.132s18.452-41.132,41.132-41.132
	s41.132,18.452,41.132,41.132S180.622,344.456,157.942,344.456z M157.942,282.192c-11.652,0-21.132,9.479-21.132,21.132
	s9.479,21.132,21.132,21.132s21.132-9.479,21.132-21.132S169.595,282.192,157.942,282.192z"/>
<path style="fill:#FFC000;" d="M354.058,344.456c-22.68,0-41.132-18.452-41.132-41.132s18.452-41.132,41.132-41.132
	s41.132,18.452,41.132,41.132S376.737,344.456,354.058,344.456z M354.058,282.192c-11.652,0-21.132,9.479-21.132,21.132
	s9.479,21.132,21.132,21.132s21.132-9.479,21.132-21.132S365.71,282.192,354.058,282.192z"/>
<path style="fill:#D39746;" d="M460.799,409.616l-8.525-17.542l-152.978-37.523v-30.788h-86.591v30.788L59.726,392.075
	l-8.525,17.542C97.907,471.784,172.255,512,256,512S414.093,471.785,460.799,409.616z"/>
<path style="fill:#C4873D;" d="M452.274,392.075l-152.978-37.523v-30.788h-43.629v188.234c0.111,0,0.222,0.002,0.333,0.002
	c83.745,0,158.093-40.215,204.799-102.384L452.274,392.075z"/>
<path style="fill:#E7AF5B;" d="M256.972,336.634h-1.943c-54.771,0-99.172-44.401-99.172-99.172v-78.124
	c0-54.771,44.401-99.172,99.172-99.172h1.943c54.771,0,99.172,44.401,99.172,99.172v78.124
	C356.143,292.233,311.743,336.634,256.972,336.634z"/>
<path style="fill:#D39746;" d="M256,62.917c-0.112,0-0.222,0.004-0.333,0.004v273.713h1.305c54.768,0,99.166-44.396,99.171-99.162
	v-76.346C356.143,106.887,311.308,62.917,256,62.917z"/>
<path style="fill:#1A1A1A;" d="M256,60.167L256,60.167c-55.308,0-100.143,43.97-100.143,98.21v77.033
	c0-54.24,44.836-98.21,100.143-98.21l0,0c55.308,0,100.143,43.97,100.143,98.21v-77.033C356.143,104.137,311.308,60.167,256,60.167z
	"/>
<path d="M256,60.167L256,60.167c-0.112,0-0.222,0.004-0.333,0.004v77.033c0.111,0,0.222-0.004,0.333-0.004l0,0
	c55.308,0,100.143,43.97,100.143,98.21v-77.033C356.143,104.137,311.308,60.167,256,60.167z"/>
<path style="fill:#FF6838;" d="M256,85.257L256,85.257c-55.308,0-100.143,43.97-100.143,98.21v25.522
	c0-54.24,44.835-98.21,100.143-98.21l0,0c55.308,0,100.143,43.97,100.143,98.21v-25.522C356.143,129.226,311.308,85.257,256,85.257z
	"/>
<path style="fill:#AE4E32;" d="M256,85.257c-0.111,0-0.222,0.004-0.333,0.004v25.522c0.111,0,0.222-0.004,0.333-0.004
	c55.308,0,100.143,43.97,100.143,98.21v-25.522C356.143,129.226,311.308,85.257,256,85.257z"/>
<circle style="fill:#1A1A1A;" cx="313.02" cy="229.85" r="10.803"/>
<circle style="fill:#333333;" cx="198.98" cy="229.85" r="10.803"/>
<path style="fill:#D89741;" d="M256.354,257.642h-0.708c-6.156,0-11.146-4.99-11.146-11.146v-6.068h23v6.068
	C267.5,252.651,262.51,257.642,256.354,257.642z"/>
<path style="fill:#C4873D;" d="M255.667,240.428v17.214h0.687c6.156,0,11.146-4.99,11.146-11.146v-6.068L255.667,240.428
	L255.667,240.428z"/>
<path style="fill:#F1333F;" d="M452.274,392.075l-97.28-23.861c-7.329,48.087-48.859,84.929-98.994,84.929
	s-91.665-36.842-98.995-84.929l-97.28,23.861L51.2,409.617C97.907,471.784,172.255,512,256,512s158.093-40.215,204.799-102.384
	L452.274,392.075z"/>
<path style="fill:#AE283F;" d="M452.274,392.075l-97.28-23.861c-7.329,48.087-48.859,84.929-98.994,84.929
	c-0.112,0-0.222-0.007-0.333-0.008v58.862c0.111,0,0.222,0.002,0.333,0.002c83.745,0,158.093-40.215,204.799-102.384
	L452.274,392.075z"/>
<path style="fill:#FFD863;" d="M306.92,356.422C304.001,401.853,281.872,438.5,256,438.5s-48.001-36.647-50.92-82.078l-19.699,4.832
	c1.945,23.45,8.417,45.216,18.73,62.433C217.558,446.136,235.985,458.5,256,458.5s38.442-12.364,51.889-34.813
	c10.313-17.217,16.785-38.983,18.73-62.433L306.92,356.422z"/>
<path style="fill:#FFCF35;" d="M306.92,356.422C304.001,401.853,281.872,438.5,256,438.5c-0.112,0-0.222-0.013-0.333-0.015v20.008
	c0.111,0,0.222,0.006,0.333,0.006c20.015,0,38.442-12.364,51.889-34.813c10.313-17.217,16.785-38.983,18.73-62.433L306.92,356.422z"
	/>
<path style="fill:#F1333F;" d="M255.667,303c-16.818,0-30.5-13.682-30.5-30.5h12c0,10.201,8.299,18.5,18.5,18.5
	s18.5-8.299,18.5-18.5h12C286.167,289.318,272.485,303,255.667,303z"/>
<path style="fill:#AE283F;" d="M255.667,291c10.201,0,18.5-8.299,18.5-18.5h12c0,16.818-13.682,30.5-30.5,30.5L255.667,291
	L255.667,291z"/>
<g>
</g>
<g>
</g>
<g>
</g>
<g>
</g>
<g>
</g>
<g>
</g>
<g>
</g>
<g>
</g>
<g>
</g>
<g>
</g>
<g>
</g>
<g>
</g>
<g>
</g>
<g>
</g>
<g>
</g>
</svg>
