<?xml version="1.0" encoding="iso-8859-1"?>
<!-- Generator: Adobe Illustrator 19.0.0, SVG Export Plug-In . SVG Version: 6.00 Build 0)  -->
<svg version="1.1" id="Layer_1" xmlns="http://www.w3.org/2000/svg" xmlns:xlink="http://www.w3.org/1999/xlink" x="0px" y="0px"
	 viewBox="0 0 512.001 512.001" style="enable-background:new 0 0 512.001 512.001;" xml:space="preserve">
<circle style="fill:#47AB4B;" cx="256" cy="256" r="256"/>
<path style="fill:#2B9153;" d="M297.393,77.399l-173.699,83.024l59.02,59.02L138.25,309l192.038,192.038
	c0.001,0,0.002-0.001,0.002-0.001c1.136-0.344,2.271-0.701,3.406-1.056c93.065-29.611,163.041-110.983,176.096-210.295
	L297.393,77.399z"/>
<path style="fill:#333333;" d="M256,60.167L256,60.167c-32.236,0-58.369,26.133-58.369,58.369v45.783
	c0-32.236,26.133-58.369,58.369-58.369l0,0c32.236,0,58.369,26.133,58.369,58.369v-45.783C314.369,86.299,288.236,60.167,256,60.167
	z"/>
<path style="fill:#1A1A1A;" d="M256,60.167L256,60.167c-0.112,0-0.222,0.008-0.333,0.008v45.783
	c0.112-0.001,0.221-0.008,0.333-0.008l0,0c32.236,0,58.369,26.133,58.369,58.369v-45.783C314.369,86.299,288.236,60.167,256,60.167z
	"/>
<path style="fill:#D39746;" d="M460.799,409.616l-8.525-17.542l-152.978-37.523v-30.788h-86.591v30.788L59.726,392.075
	l-8.525,17.542C97.907,471.784,172.255,512,256,512S414.093,471.785,460.799,409.616z"/>
<path style="fill:#C4873D;" d="M452.274,392.075l-152.978-37.523v-30.788h-43.629v188.234c0.111,0,0.222,0.003,0.333,0.003
	c83.745,0,158.093-40.215,204.799-102.384L452.274,392.075z"/>
<circle style="fill:#D39746;" cx="155.86" cy="243.98" r="28.808"/>
<circle style="fill:#C4873D;" cx="356.141" cy="243.98" r="28.808"/>
<path style="fill:#E7AF5B;" d="M258.984,336.634h-5.968c-53.66,0-97.159-43.5-97.159-97.159v-71.043
	c0-53.66,43.5-78.476,97.159-78.476l5.968-0.004c40.683,20.061,97.136,90.197,97.159,91.631v57.892
	C356.143,293.134,312.643,336.634,258.984,336.634z"/>
<path style="fill:#D39746;" d="M284.787,107.113C274.9,100.289,265.06,94.511,256,90.333v-0.38h-0.3
	c-0.011,0.243-0.022,0.383-0.034,0.384v246.296h3.317c53.66,0,97.159-43.5,97.159-97.159v-55.059
	c-1.005-2.551-2.248-5.167-3.661-7.821C342.454,163.935,313.354,130.023,284.787,107.113z"/>
<path style="fill:#1A1A1A;" d="M256,84.605L256,84.605c-55.308,0-100.143,42.204-100.143,94.265v73.938
	c0-52.061,44.836-94.265,100.143-94.265l0,0c55.308,0,100.143,42.204,100.143,94.265V178.87
	C356.143,126.809,311.309,84.605,256,84.605z"/>
<path d="M256,84.605L256,84.605c-0.112,0-0.222,0.004-0.333,0.004v73.938c0.111,0,0.222-0.004,0.333-0.004l0,0
	c55.308,0,100.143,42.204,100.143,94.265V178.87C356.143,126.809,311.309,84.605,256,84.605z"/>
<circle style="fill:#1A1A1A;" cx="313.02" cy="229.85" r="10.803"/>
<circle style="fill:#333333;" cx="198.98" cy="229.85" r="10.803"/>
<path style="fill:#D89741;" d="M256.354,257.642h-0.708c-6.156,0-11.146-4.99-11.146-11.146v-6.068h23v6.068
	C267.5,252.651,262.51,257.642,256.354,257.642z"/>
<path style="fill:#C4873D;" d="M255.667,240.428v17.214h0.687c6.156,0,11.146-4.99,11.146-11.146v-6.068L255.667,240.428
	L255.667,240.428z"/>
<path style="fill:#E0E0E0;" d="M452.274,392.075l-97.28-23.861c-7.329,48.087-48.859,84.929-98.994,84.929
	s-91.665-36.842-98.995-84.929l-97.28,23.861L51.2,409.617C97.907,471.784,172.255,512,256,512s158.093-40.215,204.799-102.384
	L452.274,392.075z"/>
<path style="fill:#C0C0C0;" d="M452.274,392.075l-97.28-23.861c-7.329,48.087-48.859,84.929-98.994,84.929
	c-0.112,0-0.222-0.007-0.333-0.008v58.862c0.111,0,0.222,0.003,0.333,0.003c83.745,0,158.093-40.215,204.799-102.384
	L452.274,392.075z"/>
<circle style="fill:#F1333F;" cx="167.65" cy="107.69" r="68.65"/>
<path style="fill:#FFFFFF;" d="M354.994,368.214c-7.329,48.087-48.859,84.929-98.994,84.929s-91.665-36.842-98.995-84.929
	l-29.747,7.297c3.784,67.823,59.973,121.655,128.742,121.655s124.958-53.832,128.742-121.655L354.994,368.214z"/>
<path style="fill:#E6E6E6;" d="M354.994,368.214c-7.329,48.087-48.859,84.929-98.994,84.929c-0.112,0-0.222-0.007-0.333-0.008
	v44.026c0.111,0,0.222,0.004,0.333,0.004c68.769,0,124.958-53.832,128.742-121.655L354.994,368.214z"/>
<rect x="353.75" y="260.5" style="fill:#FFC000;" width="20" height="48.5"/>
<g>
	<rect x="138.25" y="260.5" style="fill:#FFDC00;" width="20" height="48.5"/>
	<path style="fill:#FFDC00;" d="M309.094,376.149c0,48.071-24.313,88.683-53.094,88.683s-53.094-40.612-53.094-88.683
		c0-6.683,0.471-13.221,1.358-19.527l-20.714,5.081c-0.417,4.754-0.644,9.574-0.644,14.446c0,28.245,7.122,54.939,20.055,75.166
		c13.819,21.614,32.655,33.517,53.04,33.517c20.384,0,39.221-11.903,53.039-33.517c12.933-20.227,20.055-46.922,20.055-75.166
		c0-4.871-0.227-9.692-0.644-14.446l-20.714-5.081C308.623,362.928,309.094,369.466,309.094,376.149z"/>
</g>
<path style="fill:#FFC000;" d="M328.451,361.703l-20.714-5.081c0.886,6.306,1.358,12.844,1.358,19.527
	c0,48.071-24.313,88.683-53.094,88.683c-0.111,0-0.222-0.006-0.333-0.007v20.001c0.111,0.001,0.222,0.006,0.333,0.006
	c20.384,0,39.221-11.903,53.039-33.517c12.933-20.227,20.055-46.922,20.055-75.166C329.094,371.277,328.867,366.457,328.451,361.703
	z"/>
<path style="fill:#F1333F;" d="M255.667,303c-16.818,0-30.5-13.682-30.5-30.5h12c0,10.201,8.299,18.5,18.5,18.5
	s18.5-8.299,18.5-18.5h12C286.167,289.318,272.485,303,255.667,303z"/>
<path style="fill:#AE283F;" d="M255.667,291c10.201,0,18.5-8.299,18.5-18.5h12c0,16.818-13.682,30.5-30.5,30.5L255.667,291
	L255.667,291z"/>
<g>
</g>
<g>
</g>
<g>
</g>
<g>
</g>
<g>
</g>
<g>
</g>
<g>
</g>
<g>
</g>
<g>
</g>
<g>
</g>
<g>
</g>
<g>
</g>
<g>
</g>
<g>
</g>
<g>
</g>
</svg>
