<?xml version="1.0" encoding="iso-8859-1"?>
<!-- Generator: Adobe Illustrator 19.0.0, SVG Export Plug-In . SVG Version: 6.00 Build 0)  -->
<svg version="1.1" id="Layer_1" xmlns="http://www.w3.org/2000/svg" xmlns:xlink="http://www.w3.org/1999/xlink" x="0px" y="0px"
	 viewBox="0 0 470.901 470.901" style="enable-background:new 0 0 470.901 470.901;" xml:space="preserve">
<g>
	<polygon style="fill:#333333;" points="257.437,165.083 213.483,165.083 206.795,176.482 264.125,176.482 	"/>
	<path style="fill:#333333;" d="M226.765,446.753c-1.15,8.29-2.28,15.5-3.2,21.04c-0.6,3.65-5.6,4.27-7.07,0.87
		c-3.18-7.34-6.04-14.66-8.6-21.91H226.765z"/>
	<path style="fill:#333333;" d="M263.015,446.753c-2.56,7.25-5.42,14.57-8.6,21.91c-1.47,3.4-6.47,2.78-7.08-0.87
		c-0.92-5.54-2.05-12.75-3.2-21.04H263.015z"/>
	<path style="fill:#F9DBB7;" d="M337.655,273.003c0.13,8.6-0.8,16.97-2.67,24.97c-0.66,2.81-4.79,2.34-4.79-0.55v-0.22
		c0-5.46-0.46-10.81-1.35-16.01c-4.53-26.62-20.16-49.45-41.97-63.57c-0.77-0.5-1.54-0.98-2.32-1.45c-0.92-0.56-1.84-1.1-2.78-1.63
		c-13.69-7.7-22.13,20.54-38.95,20.54c-5.44,0-15.81-0.88-21,0c-10.86,1.84-23.42-25.75-32.69-20.54c-1.74,0.97-3.44,2-5.1,3.09
		c-18.51,11.97-32.57,30.23-39.18,51.76c-2.7,8.79-4.15,18.13-4.15,27.81v0.22c0.01,2.88-4.11,3.42-4.77,0.61
		c-1.76-7.52-2.7-15.36-2.7-23.42c0-2.8,0.11-5.58,0.34-8.32v-0.01c2.79-34.69,22.92-64.49,51.7-80.73
		c7.09-4.01,14.7-7.19,22.71-9.42c2.25-0.63,4.53-1.18,6.84-1.65c1.59-0.32,3.08-0.9,4.43-1.7c3.51-2.04,6.08-5.51,6.94-9.62
		l0.13-0.64c2.98,0.31,6.03,0.47,9.13,0.47s6.15-0.15,9.12-0.47l0.16,0.76c0.84,4.04,3.33,7.44,6.74,9.5
		c1.37,0.84,2.89,1.45,4.51,1.8c10.1,2.18,19.72,5.92,28.57,10.94c0.37,0.2,0.74,0.42,1.11,0.63c25.08,14.62,43.89,39.6,49.93,68.44
		c0.06,0.27,0.11,0.54,0.16,0.81C336.915,261.142,337.565,267.022,337.655,273.003z"/>
	<path style="opacity:0.29;fill:#4D4D4D;enable-background:new    ;" d="M248.555,170.421c-4.07,1.53-8.47,2.36-13.07,2.36
		c-4.62,0-9.05-0.84-13.14-2.38c1.93-1.95,3.093-4.323,3.88-7.24l0.198-1.192c2.98,0.31,6.082,0.553,9.182,0.553
		s5.927-0.126,8.897-0.446l0.258,1.325C245.486,166.266,246.47,168.204,248.555,170.421z"/>
	<path style="fill:#333333;" d="M291.965,366.059l-114.43,36.59l0.57-17.18l3.24-98.39l1.6-41.33l1.09-28.12l1.24-32.08
		c4.94-2.79,10.12-5.17,15.52-7.11c1.97-0.72,3.97-1.37,6-1.96l11.43,0.05l17.23,41.55l17.18-41.42l11.49,0.05
		c2.03,0.62,4.03,1.3,6,2.04c5.39,2.03,10.59,4.52,15.54,7.4l1.21,31.47l1.09,28.13l1.6,41.33l1.89,62.14L291.965,366.059z"/>
	<polygon style="fill:#FE3F3D;" points="289.075,285.749 181.835,285.749 182.455,258.313 288.455,258.313 	"/>
	<polygon style="fill:#4D4D4D;" points="289.075,275.547 181.835,275.547 182.455,268.514 288.455,268.514 	"/>
	<path style="fill:#FE3F3D;" d="M156.865,288.703v64.38l-12,12v-67.05c0-11.56-3.99-22.77-11.29-31.74v-0.01
		c0.35-4.37,0.98-8.66,1.86-12.85C146.825,260.413,156.865,277.142,156.865,288.703z"/>
	<path style="fill:#3A3A3A;" d="M186.245,185.003v126.43c0,7.86-3.12,15.39-8.68,20.95l-20.7,20.7v-64.38
		c0-11.56-10.04-28.29-21.43-35.27C141.645,223.932,160.595,199.122,186.245,185.003z"/>
	<path style="fill:#3A3A3A;" d="M337.225,266.283v0.01c-3.65,4.49-6.47,9.53-8.38,14.9s-2.91,11.06-2.91,16.84v67.05l-32.7-32.7
		c-5.56-5.56-8.68-13.09-8.68-20.95v-125.91c0.37,0.2,0.74,0.42,1.11,0.63c25.08,14.62,43.89,39.6,49.93,68.44
		c0.06,0.27,0.11,0.54,0.16,0.81C336.435,258.962,336.925,262.592,337.225,266.283z"/>
	<path style="fill:#FE3F3D;" d="M313.935,288.703v64.38l12,12v-67.05c0-11.56,3.99-22.77,11.29-31.74v-0.01
		c-0.35-4.37-0.98-8.66-1.86-12.85C323.975,260.413,313.935,277.142,313.935,288.703z"/>
	<polygon style="fill:#FE3F3D;" points="264.125,176.709 235.455,245.749 229.705,231.859 206.795,176.479 213.485,165.079 
		218.225,176.529 235.445,218.049 235.455,218.079 252.635,176.659 257.435,165.079 	"/>
	<polygon style="fill:#FE3F3D;" points="286.095,446.753 184.825,446.753 186.605,399.749 283.305,368.829 	"/>
	<polygon style="opacity:0.29;fill:#4D4D4D;enable-background:new    ;" points="283.305,368.829 186.605,399.749 186.248,409.197 
		186.605,409.082 283.305,378.163 283.636,378.057 	"/>
	<g>
		<circle style="fill:#EACAA7;" cx="180.672" cy="102.083" r="14.791"/>
		<circle style="fill:#EACAA7;" cx="290.229" cy="102.083" r="14.791"/>
	</g>
	<path style="fill:#F9DBB7;" d="M296.325,111.192c0,30.51-22.46,48.31-51.75,51.33c-2.97,0.32-6.02,0.47-9.12,0.47
		c-3.1,0-6.15-0.16-9.13-0.47c-1.49-0.15-2.97-0.34-4.42-0.57c-27.1-4.29-47.33-21.8-47.33-50.76c0-8.79,1.86-17.95,5.21-26.7
		c3.64-9.57,9.06-18.64,15.77-26.17c10.69-12,24.65-20.11,39.9-20.11c21.43,0,40.28,16,51.12,36.31
		C292.745,86.073,296.325,99.003,296.325,111.192z"/>
	<path style="fill:#FFFFFF;" d="M247.411,109.307c0,9.697-5.352,17.558-11.954,17.558c-6.602,0-11.954-7.861-11.954-17.558H247.411z
		"/>
	<g>
		<path d="M215.107,102.77c0,0-0.303-0.04-0.778-0.17c-0.234-0.078-0.532-0.14-0.829-0.189c-0.299-0.06-0.603-0.132-0.969-0.186
			c-0.345-0.076-0.715-0.135-1.097-0.184c-0.368-0.082-0.776-0.08-1.158-0.154c-0.403-0.009-0.794-0.077-1.2-0.08
			c-0.401-0.034-0.808-0.022-1.213-0.038c-0.405,0.017-0.811,0.008-1.212,0.041c-0.406,0.007-0.797,0.069-1.199,0.082
			c-0.382,0.074-0.79,0.073-1.157,0.155c-0.382,0.048-0.751,0.107-1.096,0.183c-0.361,0.049-0.683,0.133-0.988,0.199
			c-0.309,0.06-0.594,0.111-0.817,0.178c-0.461,0.116-0.775,0.164-0.775,0.164s0.059-0.289,0.251-0.763
			c0.092-0.242,0.22-0.528,0.416-0.818c0.187-0.301,0.415-0.637,0.719-0.948c0.148-0.161,0.311-0.322,0.481-0.492
			c0.18-0.151,0.376-0.296,0.578-0.452c0.401-0.321,0.882-0.551,1.382-0.808c0.517-0.196,1.06-0.427,1.642-0.519
			c0.574-0.15,1.177-0.162,1.776-0.201c0.599,0.039,1.201,0.054,1.776,0.204c0.581,0.096,1.125,0.322,1.641,0.521
			c0.499,0.257,0.981,0.488,1.381,0.808c0.201,0.156,0.398,0.299,0.578,0.452c0.17,0.17,0.334,0.329,0.481,0.491
			c0.299,0.306,0.545,0.654,0.737,0.96c0.208,0.3,0.323,0.576,0.404,0.807C215.037,102.472,215.107,102.77,215.107,102.77z"/>
		<path d="M270.298,102.77c0,0-0.303-0.04-0.778-0.17c-0.234-0.078-0.532-0.14-0.829-0.189c-0.299-0.06-0.603-0.132-0.969-0.186
			c-0.345-0.076-0.715-0.135-1.097-0.184c-0.368-0.082-0.776-0.08-1.158-0.154c-0.403-0.009-0.794-0.077-1.2-0.08
			c-0.401-0.034-0.808-0.022-1.213-0.038c-0.405,0.017-0.811,0.008-1.212,0.041c-0.406,0.007-0.797,0.069-1.199,0.082
			c-0.382,0.074-0.79,0.073-1.157,0.155c-0.382,0.048-0.752,0.107-1.097,0.183c-0.361,0.049-0.682,0.133-0.987,0.199
			c-0.309,0.06-0.594,0.111-0.817,0.178c-0.461,0.116-0.775,0.164-0.775,0.164s0.059-0.289,0.251-0.763
			c0.092-0.242,0.22-0.528,0.416-0.818c0.187-0.301,0.415-0.637,0.719-0.948c0.148-0.161,0.311-0.322,0.481-0.492
			c0.18-0.151,0.376-0.296,0.578-0.452c0.401-0.321,0.883-0.551,1.382-0.808c0.517-0.196,1.06-0.427,1.642-0.519
			c0.574-0.15,1.177-0.162,1.776-0.201c0.599,0.039,1.201,0.054,1.775,0.204c0.581,0.096,1.125,0.322,1.641,0.521
			c0.499,0.257,0.981,0.488,1.381,0.808c0.201,0.156,0.398,0.299,0.578,0.452c0.17,0.17,0.334,0.329,0.481,0.491
			c0.299,0.306,0.545,0.654,0.737,0.96c0.208,0.3,0.323,0.576,0.404,0.807C270.227,102.472,270.298,102.77,270.298,102.77z"/>
	</g>
	<path style="fill:#333333;" d="M291.66,0L291.66,0c-11.713,0-22.659,4.974-29.202,13.271l-7.097,8.998l0,0
		C238.878,8.02,216.402,0,192.949,0h-13.708l8.204,69.06h96.012L291.66,0z"/>
	<path style="fill:#FE3F3D;" d="M277.239,62.06h-83.576L187.121,7h5.827c21.637,0,42.717,7.495,57.834,20.564l5.54,4.789
		l11.632-14.747c3.107-3.941,7.504-6.979,12.715-8.786l3.019-1.047L277.239,62.06z M197.215,58.06h76.471l5.25-44.194
		c-3.153,1.55-5.827,3.663-7.841,6.217l-14.224,18.033l-8.704-7.526C233.766,18.141,213.639,11,192.949,11h-1.323L197.215,58.06z"/>
	<rect x="194.175" y="42.769" style="fill:#FE3F3D;" width="82.396" height="4"/>
	<path style="fill:#FE3F3D;" d="M245.201,62.06h-19.5V42.769h19.5V62.06z M229.701,58.06h11.5V46.769h-11.5V58.06z"/>
	
		<line style="fill:none;stroke:#FE3F3D;stroke-width:4;stroke-linecap:round;stroke-miterlimit:10;" x1="235.45" y1="52.415" x2="235.45" y2="52.415"/>
	<polygon style="fill:#FE3F3D;" points="291.965,366.059 177.535,402.649 178.105,385.469 291.455,349.219 	"/>
	<polygon style="fill:#FE3F3D;" points="235.455,245.749 228.875,261.599 215.605,265.819 229.705,231.859 	"/>
	<rect x="214.172" y="284.351" style="fill:#FE3F3D;" width="10.567" height="95.498"/>
</g>
<g>
</g>
<g>
</g>
<g>
</g>
<g>
</g>
<g>
</g>
<g>
</g>
<g>
</g>
<g>
</g>
<g>
</g>
<g>
</g>
<g>
</g>
<g>
</g>
<g>
</g>
<g>
</g>
<g>
</g>
</svg>
