<?xml version="1.0" encoding="iso-8859-1"?>
<!-- Generator: Adobe Illustrator 19.0.0, SVG Export Plug-In . SVG Version: 6.00 Build 0)  -->
<svg version="1.1" id="Layer_1" xmlns="http://www.w3.org/2000/svg" xmlns:xlink="http://www.w3.org/1999/xlink" x="0px" y="0px"
	 viewBox="0 0 264.269 264.269" style="enable-background:new 0 0 264.269 264.269;" xml:space="preserve">
<g>
	<path style="fill:#FFFFFF;" d="M117.343,173.485l-46.13,46.13c8.49,8.49,8.49,22.26,0,30.76
		c-15.659,15.659-42.017,0.441-36.4-20.93c-21.372,5.617-36.596-20.734-20.93-36.4c8.5-8.49,22.26-8.5,30.76,0l46.12-46.13
		c4.27-0.31,9.67-2.53,15.21-6.28c-6.23,9.23-8.24,18.02-4.31,21.95c3.94,3.94,12.73,1.93,21.96-4.3
		C119.883,163.825,117.663,169.215,117.343,173.485z"/>
	<g>
		<path style="fill:#F59D00;" d="M230.403,125.855c-17.15,17.16-43.57,30.86-68.02,35.31c-3.93,0.71-7.5,2.66-10.26,5.54
			c-16.281,17.186-35.941,21.064-34.78,6.78c0.32-4.27,2.54-9.66,6.28-15.2c-9.23,6.23-18.02,8.24-21.96,4.3
			c-3.93-3.93-1.92-12.72,4.31-21.95c-5.54,3.75-10.94,5.97-15.21,6.28c-14.492,1.126-10.12-18.766,6.79-34.78
			c2.88-2.76,4.83-6.34,5.54-10.26c4.44-24.45,18.15-50.87,35.31-68.03c30.88-30.88,76.52-35.33,101.93-9.92
			S261.293,94.965,230.403,125.855z"/>
		<path style="fill:#414042;" d="M245.637,18.621C217.343-9.671,166.862-5.22,133.1,28.542
			c-18.323,18.323-32.649,45.909-37.387,71.997c-0.426,2.352-1.584,4.49-3.317,6.151c-13.068,12.376-23.423,31.714-14.604,42.592
			l-33.839,33.846c-11.186-6.49-25.794-4.954-35.373,4.614c-17.369,17.37-6.815,47.584,18.14,49.797
			c2.184,24.611,32.191,35.745,49.801,18.136c9.564-9.576,11.101-24.184,4.61-35.371l33.847-33.847
			c9.434,7.683,27.355,1.489,42.561-14.563c1.692-1.766,3.829-2.924,6.188-3.35c26.1-4.751,53.683-19.077,71.981-37.386
			C269.471,97.394,273.925,46.91,245.637,18.621z M65.91,214.312c-2.926,2.927-2.929,7.679,0.001,10.606
			c5.553,5.553,5.552,14.595-0.001,20.153c-10.163,10.163-27.553,0.394-23.842-13.72c1.457-5.546-3.617-10.621-9.16-9.16
			c-14,3.673-23.993-13.571-13.725-23.84c5.56-5.555,14.604-5.557,20.156-0.003c2.927,2.926,7.679,2.929,10.607-0.001l42.198-42.207
			c-0.16,4.373,1.095,8.627,4.215,11.747c3.11,3.111,7.39,4.382,11.751,4.223L65.91,214.312z M225.1,120.552l-0.001,0.001
			c-16.011,16.02-41.155,29.064-64.049,33.231c-5.485,0.991-10.444,3.664-14.371,7.763c-9.723,10.263-18.837,13.412-21.883,13.215
			c-0.059-3.767,2.906-9.115,5.043-12.28c4.599-6.811-3.622-14.997-10.411-10.414c-3.025,2.042-8.825,5.245-12.295,5.054
			c-0.102-1.709,0.914-6.154,5.057-12.292c4.65-6.892-3.696-14.962-10.421-10.407c-3.099,2.098-8.683,5.187-12.286,5.035
			c-0.161-3.069,3.002-12.194,13.26-21.909c4.064-3.895,6.737-8.853,7.729-14.335c4.157-22.887,17.202-48.035,33.235-64.067
			c27.91-27.913,68.878-32.364,91.322-9.92C257.47,51.668,253.016,92.636,225.1,120.552z"/>
	</g>
</g>
<g>
</g>
<g>
</g>
<g>
</g>
<g>
</g>
<g>
</g>
<g>
</g>
<g>
</g>
<g>
</g>
<g>
</g>
<g>
</g>
<g>
</g>
<g>
</g>
<g>
</g>
<g>
</g>
<g>
</g>
</svg>
