<?xml version="1.0" encoding="iso-8859-1"?>
<!-- Generator: Adobe Illustrator 19.0.0, SVG Export Plug-In . SVG Version: 6.00 Build 0)  -->
<svg version="1.1" id="Capa_1" xmlns="http://www.w3.org/2000/svg" xmlns:xlink="http://www.w3.org/1999/xlink" x="0px" y="0px"
	 viewBox="0 0 512 512" style="enable-background:new 0 0 512 512;" xml:space="preserve">
<path style="fill:#6DAF00;" d="M512,198.292V445.74c0,36.416-29.522,65.937-65.937,65.937H65.937C29.522,511.677,0,482.156,0,445.74
	V215.887c5.768,0,20.271-0.073,33.28-0.23l137.101-17.398c35.035-8.788,69.402-18.944,106.893-28.233l18.213-4.378
	c14.085-3.26,28.672-6.363,43.948-9.195c33.912-6.292,71.201-11.242,113.894-13.658C485.186,140.992,512,166.384,512,198.292z"/>
<polyline style="fill:#92796C;" points="123.402,287.397 123.402,208.638 95.713,208.638 95.713,280.366 "/>
<g>
	<path style="fill:#97C818;" d="M512,198.292v21.587c-89.307-1.379-162.001-28.578-172.565-63.425
		c33.912-6.292,71.201-11.242,113.894-13.658C485.186,140.992,512,166.384,512,198.292z"/>
	<path style="fill:#97C818;" d="M65.937,511.678h380.125c36.416,0,65.937-29.521,65.937-65.937V337.837
		c-36.874,0-69.58-3.082-100.195-8.046l-202.773-49.121c-22.12-4.974-45.516-9.509-70.886-13.197
		c-17.983-2.612-36.958-4.807-57.177-6.426c-24.952-2.006-51.785-3.145-80.969-3.145v187.838
		C0,482.157,29.522,511.678,65.937,511.678z"/>
</g>
<path style="fill:#E91623;" d="M471.333,379.623l-24.921,75.076h-318.38l-24.921-75.076c0,0,148.125-103.131,184.111-239.94
	C323.218,276.491,471.333,379.623,471.333,379.623z"/>
<path style="fill:#6DAF00;" d="M446.416,454.699L186.09,511.678H65.937C29.522,511.678,0,482.157,0,445.741v-23.954l159.446-32.912"
	/>
<polygon style="fill:#C9091C;" points="471.333,379.623 446.412,454.699 128.031,454.699 103.111,379.623 "/>
<path style="fill:#4D3336;" d="M182.104,454.699c28.425-35.889,87.432-119.179,105.118-211.58
	c17.686,92.401,76.692,175.691,105.118,211.58"/>
<polygon style="fill:#297920;" points="129.46,87.774 171.103,87.774 109.554,0.322 48.006,87.774 89.65,87.774 34.016,152.181 
	89.65,152.181 20.025,230.58 199.084,230.58 129.46,152.181 185.093,152.181 "/>
<g>
	<polygon style="fill:#1D5B14;" points="89.645,152.18 129.46,152.181 75.331,230.579 20.023,230.579 	"/>
	<polygon style="fill:#1D5B14;" points="89.645,87.772 129.46,87.774 80.68,152.18 34.015,152.18 	"/>
	<polygon style="fill:#1D5B14;" points="48.006,87.772 109.551,0.325 86.031,87.772 	"/>
</g>
<g>
</g>
<g>
</g>
<g>
</g>
<g>
</g>
<g>
</g>
<g>
</g>
<g>
</g>
<g>
</g>
<g>
</g>
<g>
</g>
<g>
</g>
<g>
</g>
<g>
</g>
<g>
</g>
<g>
</g>
</svg>
