<?xml version="1.0" encoding="iso-8859-1"?>
<!-- Generator: Adobe Illustrator 19.0.0, SVG Export Plug-In . SVG Version: 6.00 Build 0)  -->
<svg version="1.1" id="Capa_1" xmlns="http://www.w3.org/2000/svg" xmlns:xlink="http://www.w3.org/1999/xlink" x="0px" y="0px"
	 viewBox="0 0 512 512" style="enable-background:new 0 0 512 512;" xml:space="preserve">
<path style="fill:#413740;" d="M256,170.183c-4.329,0-7.837-3.509-7.837-7.837V94.948c0-4.328,3.508-7.837,7.837-7.837
	c4.329,0,7.837,3.509,7.837,7.837v67.398C263.837,166.674,260.329,170.183,256,170.183z"/>
<path style="fill:#F68300;" d="M494.031,470.57H17.975c3.897-51.231,13.437-94.574,26.572-131.229
	c11.139-31.044,24.848-57.281,39.894-79.444c70.928-104.458,171.562-118.45,171.562-118.45s100.624,13.991,171.551,118.45
	c15.057,22.173,28.776,48.41,39.905,79.464C480.593,376.007,490.133,419.339,494.031,470.57z"/>
<path style="fill:#D16A02;" d="M467.459,339.362c-11.128-31.054-24.848-57.292-39.905-79.464
	c-80.52-84.898-171.551-97.552-171.551-97.552s-16.959,2.363-42.702,11.864c22.792-26.865,41.7-32.481,42.656-32.751
	c-2.424,0.345-101.46,15.256-171.52,118.439c-15.047,22.162-28.756,48.4-39.894,79.444c-13.134,36.655-22.674,79.997-26.572,131.229
	h114.667c2.027-51.231,6.969-94.574,13.772-131.229c0.032-0.173,0.065-0.346,0.097-0.519c5.525-29.558,28.216-52.941,57.551-59.552
	c31.73-7.151,51.936-9.028,51.936-9.028S360.514,279.939,467.459,339.362z"/>
<path style="fill:#F5CC00;" d="M450.344,299.019h-0.01c-94.448-59.831-194.341-69.099-194.341-69.099s-47.553,4.409-108.063,26.802
	c0,0.01,0,0.01,0,0.01c-27.188,10.052-56.999,23.74-86.277,42.287c69.611-140.236,194.351-157.571,194.351-157.571
	S380.743,158.783,450.344,299.019z"/>
<path style="fill:#D6AE03;" d="M256.003,141.448c-77.834,23.353-107.666,114.03-108.074,115.273c0,0.01,0,0.01,0,0.01
	c-27.188,10.052-56.999,23.74-86.277,42.287C131.263,158.783,256.003,141.448,256.003,141.448z"/>
<path style="fill:#413740;" d="M349.584,470.57H161.513c0-34.806,4.89-67.375,13.396-95.18
	c16.447-53.781,46.404-89.757,80.635-89.757c34.241,0,64.199,35.976,80.645,89.757C344.694,403.195,349.584,435.765,349.584,470.57z
	"/>
<rect y="470.579" style="fill:#FBB400;" width="512" height="40.749"/>
<rect y="470.579" style="fill:#D89603;" width="86.288" height="40.749"/>
<path style="fill:#D16A02;" d="M336.189,375.391h-161.28c16.447-53.781,46.404-89.757,80.635-89.757
	C289.785,285.634,319.742,321.61,336.189,375.391z"/>
<path style="fill:#F7DA61;" d="M479.68,99.638c-40.682,0-73.662-32.979-73.662-73.661c0-8.891,1.576-17.413,4.462-25.304
	c-28.217,10.322-48.357,37.408-48.357,69.199c0,40.682,32.979,73.662,73.661,73.662c31.792,0,58.879-20.14,69.199-48.358
	C497.093,98.063,488.571,99.638,479.68,99.638z"/>
<g>
</g>
<g>
</g>
<g>
</g>
<g>
</g>
<g>
</g>
<g>
</g>
<g>
</g>
<g>
</g>
<g>
</g>
<g>
</g>
<g>
</g>
<g>
</g>
<g>
</g>
<g>
</g>
<g>
</g>
</svg>
