<?xml version="1.0" encoding="iso-8859-1"?>
<!-- Generator: Adobe Illustrator 19.0.0, SVG Export Plug-In . SVG Version: 6.00 Build 0)  -->
<svg version="1.1" id="Layer_1" xmlns="http://www.w3.org/2000/svg" xmlns:xlink="http://www.w3.org/1999/xlink" x="0px" y="0px"
	 viewBox="0 0 512 512" style="enable-background:new 0 0 512 512;" xml:space="preserve">
<g>
	<rect x="148.042" y="65.117" style="fill:#CE3838;" width="24.333" height="79.525"/>
	<rect x="339.611" y="65.117" style="fill:#CE3838;" width="24.333" height="79.525"/>
</g>
<g>
	<path style="fill:#F2C386;" d="M363.944,49.763v20.152H148.042V49.763c0-9.308,7.554-16.862,16.862-16.862h182.178
		C356.404,32.901,363.944,40.455,363.944,49.763z"/>
	<path style="fill:#F2C386;" d="M512,145.616v268.407c0,19.096-15.477,34.574-34.574,34.574H34.574
		C15.477,448.596,0,433.119,0,414.023V145.616c0-19.096,15.477-34.574,34.574-34.574h442.852
		C496.523,111.042,512,126.519,512,145.616z"/>
</g>
<path style="fill:#E2B47D;" d="M477.426,111.042H34.574C15.477,111.042,0,126.519,0,145.616v298.909
	c0,19.096,15.477,34.574,34.574,34.574h442.852c19.096,0,34.574-15.477,34.574-34.574V145.616
	C512,126.519,496.523,111.042,477.426,111.042z M495.549,418.971c0,9.994-8.131,18.123-18.123,18.123H34.574
	c-9.994,0-18.123-8.129-18.123-18.123V145.616c0-9.994,8.129-18.123,18.123-18.123h442.852c9.994,0,18.123,8.129,18.123,18.123
	V418.971z"/>
<g>
	<rect x="398.902" y="111.042" style="fill:#EE4948;" width="49.352" height="368.057"/>
	<rect x="63.733" y="111.042" style="fill:#EE4948;" width="49.352" height="368.057"/>
</g>
<g>
	<rect x="398.902" y="437.095" style="fill:#CE3838;" width="49.352" height="42.004"/>
	<rect x="63.733" y="437.095" style="fill:#CE3838;" width="49.352" height="42.004"/>
</g>
<g>
</g>
<g>
</g>
<g>
</g>
<g>
</g>
<g>
</g>
<g>
</g>
<g>
</g>
<g>
</g>
<g>
</g>
<g>
</g>
<g>
</g>
<g>
</g>
<g>
</g>
<g>
</g>
<g>
</g>
</svg>
