<?xml version="1.0" encoding="iso-8859-1"?>
<!-- Generator: Adobe Illustrator 19.0.0, SVG Export Plug-In . SVG Version: 6.00 Build 0)  -->
<svg version="1.1" id="Layer_1" xmlns="http://www.w3.org/2000/svg" xmlns:xlink="http://www.w3.org/1999/xlink" x="0px" y="0px"
	 viewBox="0 0 512 512" style="enable-background:new 0 0 512 512;" xml:space="preserve">
<path style="fill:#C0AB91;" d="M288.476,203.832H96.428c-10.052,0-18.2-8.148-18.2-18.2v-71.407C78.228,51.24,129.469,0,192.452,0
	s114.224,51.24,114.224,114.224v71.407C306.675,195.683,298.527,203.832,288.476,203.832z M114.628,167.432h155.648v-53.207
	c0-42.912-34.912-77.824-77.824-77.824s-77.824,34.912-77.824,77.824C114.628,114.224,114.628,167.432,114.628,167.432z"/>
<path style="fill:#B39A7C;" d="M192.452,0v36.4c42.912,0,77.824,34.912,77.824,77.824v53.207h-77.824v36.4h96.024
	c10.052,0,18.2-8.148,18.2-18.2v-71.407C306.675,51.24,255.435,0,192.452,0z"/>
<circle style="fill:#5F4D37;" cx="192.458" cy="138.012" r="33.668"/>
<path style="fill:#806749;" d="M342.399,246.291H42.506c-10.052,0-18.2,8.148-18.2,18.2v152.746
	c0,52.252,42.51,94.762,94.762,94.762h146.77c52.252,0,94.762-42.51,94.762-94.762V264.491
	C360.599,254.439,352.449,246.291,342.399,246.291z"/>
<path style="fill:#A78966;" d="M359.849,233.843c-8.186-27.625-24.714-51.336-47.801-68.575
	c-23.087-17.238-50.518-26.348-79.33-26.348h-80.531c-28.812,0-56.244,9.11-79.33,26.348s-39.615,40.951-47.8,68.575
	c-1.632,5.506-0.569,11.46,2.867,16.06c3.435,4.6,8.841,7.311,14.583,7.311h299.893c5.742,0,11.148-2.709,14.583-7.311
	C360.418,245.303,361.48,239.35,359.849,233.843z"/>
<path style="fill:#5F4D37;" d="M460.565,226.164c-5.642-5.642-14.385-6.676-21.199-2.525
	c-56.412,34.368-127.221,90.666-141.488,104.933c-22.743,22.743-22.743,59.616,0,82.36c22.743,22.744,59.617,22.743,82.36,0
	c14.267-14.267,70.565-85.076,104.933-141.488c4.143-6.802,3.107-15.568-2.525-21.199L460.565,226.164z"/>
<path style="fill:#6A563D;" d="M342.399,246.291H192.452V512h73.384c52.252,0,94.762-42.51,94.762-94.762V264.491
	C360.599,254.439,352.449,246.291,342.399,246.291z"/>
<path style="fill:#957856;" d="M359.849,233.843c-8.186-27.625-24.714-51.336-47.801-68.575
	c-23.087-17.238-50.518-26.348-79.33-26.348h-40.266v118.294h149.947c5.742,0,11.148-2.709,14.583-7.311
	C360.418,245.303,361.48,239.35,359.849,233.843z"/>
<rect x="24.305" y="290.022" style="fill:#5F4D37;" width="336.298" height="34.52"/>
<rect x="192.458" y="290.022" style="fill:#554431;" width="168.149" height="34.52"/>
<g>
</g>
<g>
</g>
<g>
</g>
<g>
</g>
<g>
</g>
<g>
</g>
<g>
</g>
<g>
</g>
<g>
</g>
<g>
</g>
<g>
</g>
<g>
</g>
<g>
</g>
<g>
</g>
<g>
</g>
</svg>
