<?xml version="1.0" encoding="iso-8859-1"?>
<!-- Generator: Adobe Illustrator 19.0.0, SVG Export Plug-In . SVG Version: 6.00 Build 0)  -->
<svg version="1.1" id="Layer_1" xmlns="http://www.w3.org/2000/svg" xmlns:xlink="http://www.w3.org/1999/xlink" x="0px" y="0px"
	 viewBox="0 0 511.999 511.999" style="enable-background:new 0 0 511.999 511.999;" xml:space="preserve">
<pattern  x="-50.001" y="652" width="38.185" height="38.185" patternUnits="userSpaceOnUse" id="Unnamed_Pattern_44" viewBox="0 -38.186 38.185 38.185" style="overflow:visible;">
	<g>
		<polygon style="fill:none;" points="0,0 38.185,0 38.185,-38.186 0,-38.186 		"/>
		<polygon style="fill:none;" points="0,-38.186 38.185,-38.186 38.185,0 0,0 		"/>
		<polygon style="fill:#D9D5D3;" points="38.185,-38.186 0,-38.186 0,0 38.185,0 		"/>
	</g>
</pattern>
<path style="fill:#FFDA44;" d="M283.345,213.805V106.188c0-6.214-5.037-11.252-11.252-11.252h-32.187
	c-6.214,0-11.252,5.037-11.252,11.252v107.618c-23.149,35.721-39.263,107.715-39.263,142.29c0,47.038,29.821,85.17,66.609,85.17
	s66.609-38.132,66.609-85.17C322.608,321.52,306.494,249.526,283.345,213.805z"/>
<path style="fill:#FFCD00;" d="M283.345,213.805V106.188c0-6.214-5.037-11.252-11.252-11.252H256v346.331
	c36.787,0,66.608-38.132,66.608-85.17C322.608,321.52,306.494,249.526,283.345,213.805z"/>
<path style="fill:#6A563D;" d="M382.135,382.694l-25.053-245.707c-0.056-0.545-0.144-1.079-0.253-1.605v-34.551
	C356.83,45.233,311.597,0,255.999,0S155.168,45.233,155.168,100.831v34.551c-0.109,0.526-0.197,1.059-0.253,1.605l-25.051,245.706
	c-1.711,16.769,3.789,33.56,15.087,46.067c11.297,12.509,27.444,19.682,44.3,19.682h133.498c16.856,0,33.003-7.174,44.298-19.681
	C378.344,416.255,383.844,399.464,382.135,382.694z M186.516,100.831c0-38.313,31.17-69.485,69.484-69.485
	s69.484,31.17,69.484,69.485v22.072H186.516V100.831z M343.784,407.751c-5.365,5.939-13.031,9.346-21.037,9.346H189.25
	c-8.005,0-15.672-3.407-21.038-9.347c-5.365-5.939-7.975-13.912-7.163-21.876l23.616-231.623h142.667l23.617,231.622
	C351.762,393.837,349.15,401.811,343.784,407.751z"/>
<path style="fill:#5F4D37;" d="M382.135,382.694l-25.053-245.707c-0.056-0.545-0.144-1.079-0.253-1.605v-34.551
	C356.83,45.233,311.597,0,255.999,0v31.347c38.313,0,69.484,31.17,69.484,69.485v22.072h-69.484v31.347h71.333l23.617,231.622
	c0.811,7.964-1.8,15.938-7.166,21.879c-5.365,5.939-13.031,9.346-21.037,9.346h-66.748v31.347h66.748
	c16.856,0,33.003-7.174,44.298-19.681C378.344,416.255,383.844,399.464,382.135,382.694z"/>
<path style="fill:#B39A7C;" d="M315.906,417.096H196.092c-26.164,0-47.451,21.287-47.451,47.451
	c0,26.165,21.287,47.451,47.451,47.451h119.814c26.165,0,47.452-21.287,47.452-47.451
	C363.359,438.384,342.071,417.096,315.906,417.096z"/>
<path style="fill:#A78966;" d="M315.906,417.096h-59.907v94.903h59.907c26.165,0,47.452-21.287,47.452-47.451
	C363.359,438.384,342.071,417.096,315.906,417.096z"/>
<path style="fill:#C0AB91;" d="M281.324,444.489h-25.324v40.118h25.324c11.061,0,20.059-8.999,20.059-20.059
	S292.384,444.489,281.324,444.489z"/>
<pattern  id="SVGID_1_" xlink:href="#Unnamed_Pattern_44" patternTransform="matrix(1.1138 0 0 -1.1138 -121.1822 -20642.4277)">
</pattern>
<path style="fill:url(#SVGID_1_);" d="M230.675,444.489c-11.06,0-20.059,8.999-20.059,20.059c0,11.06,8.999,20.059,20.059,20.059
	h25.324v-40.118L230.675,444.489L230.675,444.489z"/>
<path style="fill:#D9CCBC;" d="M230.675,444.489c-11.06,0-20.059,8.999-20.059,20.059c0,11.06,8.999,20.059,20.059,20.059h25.324
	v-40.118L230.675,444.489L230.675,444.489z"/>
<rect x="228.652" y="154.247" style="fill:#FFCD00;" width="54.694" height="22.497"/>
<ellipse style="fill:#FEE579;" cx="256.005" cy="340.056" rx="46.218" ry="59.583"/>
<g>
</g>
<g>
</g>
<g>
</g>
<g>
</g>
<g>
</g>
<g>
</g>
<g>
</g>
<g>
</g>
<g>
</g>
<g>
</g>
<g>
</g>
<g>
</g>
<g>
</g>
<g>
</g>
<g>
</g>
</svg>
