<?xml version="1.0" encoding="iso-8859-1"?>
<!-- Generator: Adobe Illustrator 19.0.0, SVG Export Plug-In . SVG Version: 6.00 Build 0)  -->
<svg version="1.1" id="Layer_1" xmlns="http://www.w3.org/2000/svg" xmlns:xlink="http://www.w3.org/1999/xlink" x="0px" y="0px"
	 viewBox="0 0 512 512" style="enable-background:new 0 0 512 512;" xml:space="preserve">
<g>
	<g>
		<g>
			<path style="fill:#9D6227;" d="M86.315,507.312c-18.597,7.247-37.49,3.276-42.215-8.863l-21.993-56.442
				c-4.722-12.14,6.521-27.838,25.102-35.071l396.823-139.412c18.585-7.237,37.49-3.28,42.211,8.859l11.724,30.085
				c4.726,12.13-6.518,27.837-25.106,35.08L86.315,507.312z"/>
			<path style="fill:#915A26;" d="M493.438,294.838L36.596,479.192l7.504,19.257c4.725,12.14,23.618,16.11,42.215,8.863
				L472.86,341.547c18.589-7.243,29.832-22.95,25.106-35.08L493.438,294.838z"/>
			<path style="fill:#F2B643;" d="M81.388,509.229c-23.975,9.339-52.228-5.694-63.081-33.593
				c-10.874-27.893-0.244-58.072,23.734-67.415c23.982-9.344,52.232,5.698,63.094,33.583
				C116.006,469.703,105.367,499.886,81.388,509.229z"/>
			<path style="fill:#D89932;" d="M66.582,492.438c-12.212,0-24.565-9.828-30.046-23.896c-3.559-9.143-3.906-18.752-0.978-27.07
				c2.56-7.269,7.384-12.603,13.584-15.017c2.449-0.956,5.043-1.437,7.715-1.437c12.212,0,24.565,9.824,30.046,23.889
				c6.934,17.795,1.273,36.684-12.62,42.1C71.839,491.953,69.249,492.438,66.582,492.438z"/>
		</g>
		<g>
			<path style="fill:#9D6227;" d="M425.684,507.312c18.597,7.242,37.489,3.276,42.215-8.863l21.993-56.442
				c4.722-12.14-6.521-27.838-25.102-35.071L67.966,267.524c-18.584-7.237-37.489-3.28-42.211,8.859l-11.723,30.085
				c-4.726,12.13,6.518,27.837,25.105,35.08L425.684,507.312z"/>
			<path style="fill:#915A26;" d="M18.56,294.838l456.843,184.354l-7.504,19.257c-4.726,12.14-23.618,16.105-42.215,8.863
				L39.138,341.547c-18.588-7.243-29.831-22.95-25.105-35.08L18.56,294.838z"/>
			<path style="fill:#F2B643;" d="M430.611,509.229c23.974,9.339,52.228-5.694,63.08-33.593
				c10.875-27.893,0.245-58.072-23.733-67.415c-23.982-9.344-52.232,5.698-63.094,33.583
				C395.994,469.703,406.633,499.886,430.611,509.229z"/>
			<path style="fill:#D89932;" d="M445.418,492.438c-2.667,0-5.258-0.484-7.706-1.437c-13.889-5.411-19.549-24.3-12.615-42.091
				c5.48-14.068,17.834-23.893,30.046-23.893c2.672,0,5.266,0.48,7.714,1.437c6.201,2.414,11.025,7.748,13.585,15.017
				c2.929,8.318,2.581,17.928-0.978,27.062C469.983,482.609,457.63,492.438,445.418,492.438L445.418,492.438z"/>
		</g>
	</g>
	<g>
		<path style="fill:#F2B643;" d="M398.494,266.718c0,78.633-63.745,142.378-142.379,142.378
			c-78.637,0-147.091-63.887-142.382-142.378C121.207,142.284,256.115,130.171,273.64,0
			C358.813,74.337,398.494,188.08,398.494,266.718z"/>
		<path style="fill:#DF584C;" d="M390.222,199.031c5.549,24.077,8.031,44.128,8.271,67.687
			c0.802,78.629-63.745,142.378-142.379,142.378c-78.637,0-147.091-63.887-142.382-142.378
			c3.738-62.219,39.333-96.355,76.185-131.208c0,0-27.392,56.799-10.562,75.824s88.551-75.824,88.551-75.824
			s-15.552,41.431-14.729,63.385s11.067,34.39,24.239,20.488c13.173-13.902,19.03-44.639,16.102-60.739
			c0,0,21.222,24.146,21.955,56.348c0.733,32.203,34.394,30.736,34.394-1.462s-7.315-53.424,5.857-72.45
			C355.725,141.079,352.269,182.339,390.222,199.031z"/>
		<path style="fill:#F2B643;" d="M394.052,218.07c0.266,1.531,0.506,3.053,0.746,4.571
			C394.557,221.123,394.317,219.602,394.052,218.07z"/>
		<path style="fill:#F2B643;" d="M390.592,200.722c0.334,1.496,0.655,2.988,0.969,4.477
			C391.247,203.71,390.926,202.222,390.592,200.722z"/>
		<path style="fill:#F2B643;" d="M392.443,209.451c0.305,1.514,0.584,3.023,0.862,4.528
			C393.027,212.475,392.748,210.97,392.443,209.451z"/>
		<path style="fill:#F2B643;" d="M395.411,226.573c0.223,1.548,0.42,3.079,0.622,4.61
			C395.831,229.652,395.634,228.121,395.411,226.573z"/>
		<path style="fill:#F2B643;" d="M398.001,251.195c0.107,1.783,0.18,3.542,0.253,5.3
			C398.18,254.737,398.108,252.983,398.001,251.195z"/>
		<path style="fill:#F2B643;" d="M397.384,243.159c0.146,1.621,0.257,3.216,0.377,4.815
			C397.64,246.375,397.529,244.78,397.384,243.159z"/>
		<path style="fill:#F2B643;" d="M398.37,259.055c0.081,2.586,0.124,5.146,0.124,7.663
			C398.494,264.2,398.451,261.641,398.37,259.055z"/>
		<path style="fill:#F2B643;" d="M396.521,234.943c0.185,1.562,0.339,3.101,0.498,4.648
			C396.86,238.044,396.706,236.505,396.521,234.943z"/>
		<path style="fill:#F2B643;" d="M188.137,156.447c-3.331,2.53-6.346,5.154-9.215,7.821c-5.103,17.032-8.327,37.164,0.434,47.065
			c16.83,19.025,88.551-75.824,88.551-75.824s-15.552,41.431-14.729,63.385s11.067,34.39,24.239,20.488
			c13.173-13.902,19.03-44.639,16.102-60.739c0,0,21.222,24.146,21.955,56.348c0.733,32.203,34.394,30.736,34.394-1.462
			s-7.315-53.424,5.857-72.45c0,0-3.451,41.233,34.467,57.936C374.554,131.179,336.498,54.861,273.64,0
			C273.64,0,273.027,92.047,188.137,156.447z"/>
		<path style="fill:#DF584C;" d="M397.76,247.975c0.077,1.072,0.172,2.157,0.24,3.221
			C397.932,250.132,397.838,249.047,397.76,247.975z"/>
		<path style="fill:#DF584C;" d="M189.918,135.51L189.918,135.51c-18.426,17.426-36.538,34.672-50.509,55.345
			C153.38,170.187,171.492,152.936,189.918,135.51z"/>
		<path style="fill:#DF584C;" d="M396.033,231.184c0.167,1.256,0.339,2.517,0.488,3.76C396.372,233.7,396.2,232.439,396.033,231.184
			z"/>
		<path style="fill:#DF584C;" d="M397.019,239.592c0.12,1.188,0.257,2.389,0.364,3.567
			C397.276,241.98,397.139,240.779,397.019,239.592z"/>
		<path style="fill:#DF584C;" d="M393.305,213.979c0.253,1.368,0.511,2.731,0.746,4.091
			C393.816,216.711,393.558,215.348,393.305,213.979z"/>
		<path style="fill:#DF584C;" d="M394.798,222.642c0.206,1.312,0.42,2.628,0.613,3.932
			C395.218,225.27,395.004,223.953,394.798,222.642z"/>
		<path style="fill:#DF584C;" d="M391.56,205.198c0.3,1.419,0.604,2.843,0.883,4.253C392.165,208.041,391.86,206.617,391.56,205.198
			z"/>
		<path style="fill:#DF584C;" d="M398.254,256.495c0.034,0.849,0.09,1.715,0.116,2.56
			C398.343,258.21,398.288,257.344,398.254,256.495z"/>
		<path style="fill:#DF584C;" d="M390.222,199.031c-0.013-0.004-0.021-0.013-0.03-0.017c0.129,0.57,0.271,1.141,0.399,1.707
			C390.463,200.155,390.351,199.598,390.222,199.031z"/>
		<path style="fill:#DF584C;" d="M292.675,404.337c-0.381,0.103-0.759,0.218-1.141,0.312
			C291.916,404.555,292.294,404.439,292.675,404.337z"/>
		<path style="fill:#DF584C;" d="M318.03,394.959c-0.403,0.197-0.815,0.373-1.218,0.562
			C317.215,395.332,317.627,395.156,318.03,394.959z"/>
		<path style="fill:#DF584C;" d="M306.186,400.019c-0.737,0.274-1.475,0.545-2.221,0.811
			C304.712,400.563,305.449,400.293,306.186,400.019z"/>
		<path style="fill:#DF584C;" d="M272.028,408.188c-0.802,0.09-1.607,0.18-2.418,0.253
			C270.421,408.367,271.222,408.277,272.028,408.188z"/>
		<path style="fill:#DF584C;" d="M312.202,397.604c-0.673,0.292-1.354,0.562-2.036,0.841
			C310.847,398.166,311.529,397.896,312.202,397.604z"/>
		<path style="fill:#DF584C;" d="M285.188,406.116c-0.601,0.124-1.209,0.228-1.81,0.343
			C283.979,406.344,284.588,406.24,285.188,406.116z"/>
		<path style="fill:#DF584C;" d="M278.7,407.295c-0.78,0.125-1.564,0.231-2.346,0.344C277.135,407.526,277.92,407.42,278.7,407.295z
			"/>
		<path style="fill:#DF584C;" d="M265.013,408.792c-0.712,0.043-1.42,0.099-2.132,0.133
			C263.593,408.891,264.302,408.835,265.013,408.792z"/>
		<path style="fill:#DF584C;" d="M375.039,344.982c-0.421,0.635-0.832,1.277-1.266,1.903
			C374.207,346.26,374.618,345.617,375.039,344.982z"/>
		<path style="fill:#DF584C;" d="M299.875,402.214c-0.695,0.223-1.386,0.454-2.089,0.669
			C298.489,402.668,299.179,402.437,299.875,402.214z"/>
		<path style="fill:#DF584C;" d="M370.823,351.041c-0.239,0.326-0.467,0.66-0.711,0.986
			C370.356,351.701,370.584,351.367,370.823,351.041z"/>
		<path style="fill:#DF584C;" d="M325.17,391.229c-0.498,0.274-0.986,0.565-1.484,0.836
			C324.183,391.794,324.672,391.503,325.17,391.229z"/>
		<path style="fill:#DF584C;" d="M341.756,380.452c-0.549,0.416-1.115,0.815-1.669,1.223
			C340.644,381.268,341.207,380.868,341.756,380.452z"/>
		<path style="fill:#DF584C;" d="M362.128,361.735c-0.527,0.587-1.068,1.166-1.604,1.745
			C361.059,362.901,361.6,362.322,362.128,361.735z"/>
		<path style="fill:#DF584C;" d="M352.951,371.053c-0.493,0.464-0.981,0.936-1.483,1.386
			C351.969,371.988,352.458,371.517,352.951,371.053z"/>
		<path style="fill:#DF584C;" d="M378.529,339.421c-0.425,0.712-0.854,1.423-1.291,2.131
			C377.676,340.844,378.104,340.133,378.529,339.421z"/>
		<path style="fill:#DF584C;" d="M366.257,356.933c-0.42,0.515-0.861,1.012-1.29,1.522
			C365.395,357.944,365.837,357.447,366.257,356.933z"/>
		<path style="fill:#DF584C;" d="M346.725,376.546c-0.142,0.116-0.292,0.228-0.434,0.348
			C346.433,376.773,346.584,376.662,346.725,376.546z"/>
		<path style="fill:#DF584C;" d="M392.426,307.878c-0.253,0.841-0.515,1.673-0.78,2.505
			C391.912,309.551,392.174,308.719,392.426,307.878z"/>
		<path style="fill:#DF584C;" d="M387.898,320.635c-0.249,0.609-0.484,1.227-0.741,1.831
			C387.414,321.861,387.649,321.244,387.898,320.635z"/>
		<path style="fill:#DF584C;" d="M331.138,387.717c-0.64,0.398-1.273,0.797-1.917,1.183
			C329.865,388.514,330.499,388.115,331.138,387.717z"/>
		<path style="fill:#DF584C;" d="M381.693,333.838c-0.386,0.712-0.784,1.419-1.179,2.127
			C380.909,335.257,381.307,334.55,381.693,333.838z"/>
		<path style="fill:#DF584C;" d="M357.737,366.405c-0.558,0.565-1.111,1.128-1.673,1.685
			C356.626,367.533,357.179,366.971,357.737,366.405z"/>
		<path style="fill:#DF584C;" d="M390.373,314.139c-0.279,0.793-0.558,1.587-0.85,2.375
			C389.815,315.726,390.093,314.932,390.373,314.139z"/>
		<path style="fill:#DF584C;" d="M336.58,384.17c-0.64,0.438-1.282,0.866-1.926,1.295C335.298,385.036,335.94,384.607,336.58,384.17
			z"/>
		<path style="fill:#DF584C;" d="M384.58,328.165c-0.262,0.549-0.55,1.085-0.815,1.629
			C384.03,329.25,384.318,328.714,384.58,328.165z"/>
		<path style="fill:#B9483E;" d="M310.166,398.445c-1.316,0.544-2.642,1.067-3.979,1.573
			C307.524,399.513,308.849,398.989,310.166,398.445z"/>
		<path style="fill:#B9483E;" d="M356.064,368.09c-1.021,1.004-2.062,1.99-3.113,2.963
			C354.002,370.08,355.044,369.098,356.064,368.09z"/>
		<path style="fill:#B9483E;" d="M303.966,400.829c-1.352,0.484-2.719,0.943-4.091,1.385
			C301.247,401.772,302.614,401.313,303.966,400.829z"/>
		<path style="fill:#B9483E;" d="M323.685,392.064c-1.86,1.003-3.747,1.973-5.655,2.895
			C319.938,394.037,321.825,393.067,323.685,392.064z"/>
		<path style="fill:#B9483E;" d="M329.221,388.899c-1.338,0.802-2.688,1.569-4.052,2.329
			C326.533,390.469,327.884,389.701,329.221,388.899z"/>
		<path style="fill:#B9483E;" d="M334.654,385.465c-1.162,0.768-2.332,1.519-3.516,2.252
			C332.322,386.983,333.492,386.232,334.654,385.465z"/>
		<path style="fill:#B9483E;" d="M346.292,376.894c-1.488,1.218-3.002,2.401-4.536,3.559
			C343.29,379.295,344.803,378.111,346.292,376.894z"/>
		<path style="fill:#B9483E;" d="M351.468,372.438c-1.553,1.401-3.13,2.774-4.742,4.107
			C348.338,375.213,349.915,373.84,351.468,372.438z"/>
		<path style="fill:#B9483E;" d="M316.812,395.521c-1.522,0.72-3.058,1.419-4.61,2.084
			C313.755,396.939,315.29,396.24,316.812,395.521z"/>
		<path style="fill:#B9483E;" d="M340.087,381.675c-1.157,0.849-2.323,1.685-3.507,2.495
			C337.763,383.355,338.929,382.523,340.087,381.675z"/>
		<path style="fill:#B9483E;" d="M389.523,316.514c-0.519,1.386-1.067,2.753-1.625,4.121
			C388.456,319.267,389.005,317.899,389.523,316.514z"/>
		<path style="fill:#B9483E;" d="M380.514,335.965c-0.647,1.162-1.308,2.315-1.985,3.456
			C379.207,338.28,379.867,337.127,380.514,335.965z"/>
		<path style="fill:#B9483E;" d="M377.238,341.552c-0.716,1.153-1.453,2.294-2.199,3.431
			C375.785,343.846,376.522,342.705,377.238,341.552z"/>
		<path style="fill:#B9483E;" d="M387.157,322.466c-0.819,1.921-1.677,3.82-2.577,5.699
			C385.48,326.286,386.338,324.387,387.157,322.466z"/>
		<path style="fill:#B9483E;" d="M383.764,329.794c-0.673,1.359-1.359,2.71-2.071,4.044
			C382.405,332.504,383.092,331.153,383.764,329.794z"/>
		<path style="fill:#B9483E;" d="M357.737,366.405c0.943-0.961,1.869-1.938,2.787-2.925
			C359.606,364.467,358.68,365.444,357.737,366.405z"/>
		<path style="fill:#B9483E;" d="M364.967,358.455c-0.931,1.106-1.874,2.204-2.839,3.28
			C363.093,360.659,364.036,359.562,364.967,358.455z"/>
		<path style="fill:#B9483E;" d="M373.773,346.886c-0.956,1.407-1.946,2.787-2.95,4.155
			C371.831,349.673,372.817,348.293,373.773,346.886z"/>
		<path style="fill:#B9483E;" d="M370.112,352.027c-1.248,1.664-2.534,3.297-3.855,4.905
			C367.578,355.324,368.864,353.691,370.112,352.027z"/>
		<path style="fill:#B9483E;" d="M283.379,406.459c-1.553,0.301-3.109,0.588-4.679,0.836
			C280.269,407.047,281.826,406.76,283.379,406.459z"/>
		<path style="fill:#B9483E;" d="M297.786,402.883c-1.689,0.519-3.396,0.999-5.111,1.454
			C294.39,403.882,296.096,403.401,297.786,402.883z"/>
		<path style="fill:#B9483E;" d="M276.354,407.639c-1.436,0.205-2.877,0.39-4.326,0.549
			C273.477,408.028,274.919,407.844,276.354,407.639z"/>
		<path style="fill:#B9483E;" d="M391.646,310.383c-0.407,1.26-0.832,2.508-1.273,3.756
			C390.814,312.891,391.239,311.643,391.646,310.383z"/>
		<path style="fill:#B9483E;" d="M291.534,404.649c-2.097,0.54-4.215,1.024-6.346,1.467
			C287.319,405.674,289.437,405.189,291.534,404.649z"/>
		<path style="fill:#B9483E;" d="M269.61,408.44c-1.527,0.146-3.058,0.257-4.597,0.352
			C266.552,408.697,268.083,408.586,269.61,408.44z"/>
		<path style="fill:#B9483E;" d="M392.855,306.51c0,0-0.039,0.064-0.073,0.116c-0.12,0.416-0.231,0.836-0.355,1.252
			C392.563,307.419,392.722,306.969,392.855,306.51z"/>
		<path style="fill:#B9483E;" d="M262.882,408.925c-2.242,0.107-4.498,0.171-6.767,0.171
			C258.384,409.096,260.639,409.032,262.882,408.925z"/>
		<path style="fill:#B9483E;" d="M113.733,266.718c1.869-31.109,11.701-55.199,25.676-75.863
			C125.434,211.522,115.602,235.608,113.733,266.718z"/>
		<path style="fill:#D89932;" d="M194.84,160.719C279.729,96.317,273.64,0,273.64,0c-8.765,65.088-46.872,100.656-83.723,135.51
			c-0.009,0.021-11.826,26.217-14.339,42.061C178.447,174.903,191.509,163.248,194.84,160.719z"/>
		<path style="fill:#B9483E;" d="M392.426,307.878c0.124-0.416,0.235-0.836,0.355-1.252c-1.509,2.427-38.768,60.461-136.782,42.091
			c-80.743-15.132-129.429-94.872-80.421-171.146c4.052-19.862,14.33-42.039,14.339-42.061
			c-18.426,17.426-36.538,34.677-50.509,55.345c-13.975,20.664-24.78,47.203-26.649,78.312C108.051,347.658,177.478,410,256.115,410
			C366.257,407.781,392.174,308.719,392.426,307.878z"/>
	</g>
</g>
<g>
</g>
<g>
</g>
<g>
</g>
<g>
</g>
<g>
</g>
<g>
</g>
<g>
</g>
<g>
</g>
<g>
</g>
<g>
</g>
<g>
</g>
<g>
</g>
<g>
</g>
<g>
</g>
<g>
</g>
</svg>
